<svg width="1200" height="900" viewBox="0 0 1200 900" fill="none" xmlns="http://www.w3.org/2000/svg">
  <rect width="1200" height="900" rx="44" fill="#060816"/>
  <rect x="70" y="90" width="1060" height="720" rx="34" fill="url(#bg)" stroke="rgba(255,255,255,0.12)"/>
  <rect x="120" y="150" width="300" height="220" rx="24" fill="#121A33" stroke="#23314F"/>
  <rect x="460" y="150" width="620" height="140" rx="24" fill="#121A33" stroke="#23314F"/>
  <rect x="460" y="330" width="620" height="300" rx="24" fill="#0D142A" stroke="#23314F"/>
  <rect x="120" y="420" width="300" height="300" rx="24" fill="#0D142A" stroke="#23314F"/>
  <circle cx="172" cy="204" r="58" fill="url(#accent)"/>
  <rect x="256" y="174" width="122" height="18" rx="9" fill="#8DD4FF"/>
  <rect x="256" y="208" width="92" height="14" rx="7" fill="#54617A"/>
  <rect x="500" y="180" width="220" height="18" rx="9" fill="#8DD4FF"/>
  <rect x="500" y="214" width="160" height="14" rx="7" fill="#54617A"/>
  <rect x="500" y="380" width="150" height="22" rx="11" fill="#8DD4FF"/>
  <rect x="500" y="420" width="420" height="16" rx="8" fill="#54617A"/>
  <rect x="500" y="454" width="380" height="16" rx="8" fill="#54617A"/>
  <rect x="500" y="488" width="320" height="16" rx="8" fill="#54617A"/>
  <rect x="500" y="552" width="200" height="44" rx="22" fill="url(#accent)"/>
  <rect x="152" y="468" width="220" height="20" rx="10" fill="#8DD4FF"/>
  <rect x="152" y="514" width="182" height="14" rx="7" fill="#54617A"/>
  <rect x="152" y="546" width="202" height="14" rx="7" fill="#54617A"/>
  <rect x="152" y="578" width="160" height="14" rx="7" fill="#54617A"/>
  <circle cx="928" cy="244" r="92" fill="url(#glow)" opacity="0.85"/>
  <circle cx="940" cy="688" r="120" fill="url(#glow2)" opacity="0.75"/>
  <defs>
    <linearGradient id="bg" x1="120" y1="150" x2="1080" y2="870" gradientUnits="userSpaceOnUse">
      <stop stop-color="#111B35"/>
      <stop offset="1" stop-color="#070B16"/>
    </linearGradient>
    <linearGradient id="accent" x1="114" y1="146" x2="230" y2="262" gradientUnits="userSpaceOnUse">
      <stop stop-color="#3B82F6"/>
      <stop offset="1" stop-color="#8B5CF6"/>
    </linearGradient>
    <linearGradient id="glow" x1="836" y1="152" x2="1020" y2="336" gradientUnits="userSpaceOnUse">
      <stop stop-color="#06B6D4"/>
      <stop offset="1" stop-color="#3B82F6"/>
    </linearGradient>
    <linearGradient id="glow2" x1="820" y1="568" x2="1060" y2="808" gradientUnits="userSpaceOnUse">
      <stop stop-color="#6366F1"/>
      <stop offset="1" stop-color="#8B5CF6"/>
    </linearGradient>
  </defs>
</svg>
